<?xml version="1.0" encoding="UTF-8" standalone="no"?>
<!-- Created with Inkscape (http://www.inkscape.org/) -->

<svg
   xmlns:dc="http://purl.org/dc/elements/1.1/"
   xmlns:cc="http://creativecommons.org/ns#"
   xmlns:rdf="http://www.w3.org/1999/02/22-rdf-syntax-ns#"
   xmlns:svg="http://www.w3.org/2000/svg"
   xmlns="http://www.w3.org/2000/svg"
   xmlns:sodipodi="http://sodipodi.sourceforge.net/DTD/sodipodi-0.dtd"
   xmlns:inkscape="http://www.inkscape.org/namespaces/inkscape"
   id="svg2"
   version="1.1"
   inkscape:version="0.48.4 r9939"
   width="1000"
   height="1000"
   xml:space="preserve"
   sodipodi:docname="10410-NMI87F.ai"><metadata
     id="metadata8"><rdf:RDF><cc:Work
         rdf:about=""><dc:format>image/svg+xml</dc:format><dc:type
           rdf:resource="http://purl.org/dc/dcmitype/StillImage" /><dc:title></dc:title></cc:Work></rdf:RDF></metadata><defs
     id="defs6"><clipPath
       clipPathUnits="userSpaceOnUse"
       id="clipPath32"><path
         d="M 0,0 800,0 800,800 0,800 0,0 z"
         id="path34" /></clipPath><clipPath
       clipPathUnits="userSpaceOnUse"
       id="clipPath120"><path
         d="m -54.667,838.479 871.333,0 0,-902.1167 -871.333,0 0,902.1167 z"
         id="path122" /></clipPath><clipPath
       clipPathUnits="userSpaceOnUse"
       id="clipPath600"><path
         d="M 0,800 800,800 800,0 0,0 0,800 z"
         id="path602" /></clipPath></defs><sodipodi:namedview
     pagecolor="#ffffff"
     bordercolor="#666666"
     borderopacity="1"
     objecttolerance="10"
     gridtolerance="10"
     guidetolerance="10"
     inkscape:pageopacity="0"
     inkscape:pageshadow="2"
     inkscape:window-width="1307"
     inkscape:window-height="744"
     id="namedview4"
     showgrid="false"
     showguides="true"
     inkscape:guide-bbox="true"
     inkscape:zoom="0.3337544"
     inkscape:cx="640.02751"
     inkscape:cy="392.55669"
     inkscape:window-x="59"
     inkscape:window-y="24"
     inkscape:window-maximized="1"
     inkscape:current-layer="g10" /><g
     id="g10"
     inkscape:groupmode="layer"
     inkscape:label="10410-NMI87F"
     transform="matrix(1.25,0,0,-1.25,0,1000)"><g
       id="g4473"
       inkscape:export-filename="/var/www/html/Portfolio_2/css/image/animation.png"
       inkscape:export-xdpi="90"
       inkscape:export-ydpi="90"><g
         inkscape:export-ydpi="90"
         inkscape:export-xdpi="90"
         inkscape:export-filename="/var/www/html/Portfolio_2/css/image/animation.png"
         transform="matrix(0,1.1,-1.1,0,797.41699,40.595744)"
         id="g28"><g
           clip-path="url(#clipPath32)"
           id="g30"><g
             transform="translate(-56.0479,-47.9707)"
             id="g36"><path
               inkscape:connector-curvature="0"
               id="path38"
               style="fill:#ff2bad;fill-opacity:1;fill-rule:nonzero;stroke:none"
               d="m 0,0 c 0,0 174.793,148.382 176.819,150.128 2.026,1.748 7.118,5.561 11.162,6.976 4.044,1.416 15.065,5.43 19.151,7.839 4.085,2.409 12.621,7.575 16.045,8.689 3.425,1.114 9.778,5.764 9.778,5.764 0,0 13.503,2.342 18.297,2.861 4.793,0.516 17.507,1.981 22.407,3.675 4.899,1.694 6.609,4.864 5.986,7.175 -0.622,2.311 -3.321,5.284 -10.19,4.125 -6.87,-1.164 -19.561,-2.391 -24.205,-2.568 -4.645,-0.173 -10.658,-1.055 -11.066,0.998 -0.409,2.056 4.897,5.612 9.454,7.457 4.557,1.843 15.111,6.679 19.793,9.415 4.683,2.738 16.76,7.834 19.033,9.283 2.274,1.45 3.493,4.427 2.356,7.615 -1.137,3.189 -4.249,4.829 -10.675,2.355 -6.426,-2.475 -14.279,-6.632 -17.873,-8.325 -3.594,-1.694 -23.176,-9.017 -26.171,-9.603 -2.994,-0.586 -3.98,2.945 -0.921,5.28 3.057,2.336 12.233,10.647 16.019,14.459 3.786,3.812 10.674,10.431 13.261,12.808 2.588,2.379 8.856,7.651 10.429,9.16 1.571,1.508 4.585,4.678 1.158,8.785 -3.428,4.106 -8.22,2.284 -11.3,-0.289 -3.08,-2.57 -8.051,-6.789 -11.234,-8.974 -3.184,-2.186 -11.633,-9.02 -15.377,-12.361 -3.742,-3.342 -13.198,-13.927 -15.83,-11.293 -2.635,2.632 7.822,17.238 9.789,20.62 1.966,3.384 6.734,10.193 8.316,13.255 1.582,3.061 10.734,13.749 4.352,18.003 -6.381,4.255 -10.399,-2.148 -12.987,-5.833 -2.587,-3.681 -12.144,-17.536 -16.057,-22.762 -3.914,-5.226 -15.371,-23.061 -22.497,-25.742 -7.125,-2.681 -6.185,-0.155 -4.863,5.304 1.324,5.458 4.744,13.101 4.042,19.811 -0.413,3.953 -2.459,10.903 -7.253,11.692 -4.795,0.788 -3.487,-3.129 -4.939,-7.387 -1.453,-4.26 -6.73,-15.416 -7.627,-20.083 -0.894,-4.666 -5.189,-9.215 -6.454,-12.353 -2.445,-6.07 -3.391,-15.242 -4.523,-19.888 -1.13,-4.645 -2.878,-13.507 -2.192,-16.418 C 154.099,186.743 -23.615,39.515 -29.241,35.036 L -0.15,-0.343" /></g><g
             transform="translate(-15.3662,545.6357)"
             id="g40"><path
               inkscape:connector-curvature="0"
               id="path42"
               style="fill:#ff950f;fill-opacity:1;fill-rule:nonzero;stroke:none"
               d="m 0,0 c 0,0 209.577,-126.218 211.885,-127.599 2.309,-1.382 8.012,-4.285 12.263,-4.991 4.251,-0.706 15.864,-2.786 20.326,-4.47 4.463,-1.684 13.812,-5.334 17.398,-5.848 3.585,-0.514 10.68,-4.028 10.68,-4.028 0,0 13.785,0.004 18.624,0.317 4.84,0.313 17.69,1.051 22.837,0.216 5.147,-0.835 7.387,-3.682 7.168,-6.078 -0.22,-2.399 -2.381,-5.809 -9.388,-5.843 -7.007,-0.031 -19.795,-1 -24.427,-1.624 -4.633,-0.628 -10.744,-0.79 -10.795,-2.896 -0.05,-2.106 5.819,-4.717 10.654,-5.76 4.833,-1.042 16.123,-4.016 21.234,-5.92 5.113,-1.908 17.958,-4.878 20.46,-5.923 2.503,-1.044 4.223,-3.785 3.645,-7.14 -0.577,-3.355 -3.378,-5.517 -10.172,-4.172 -6.794,1.346 -15.292,4.113 -19.145,5.172 -3.853,1.059 -24.519,4.943 -27.588,5.01 -3.067,0.063 -3.438,-3.605 -0.004,-5.391 3.433,-1.788 13.956,-8.443 18.365,-11.569 4.408,-3.128 12.373,-8.5 15.346,-10.41 2.975,-1.911 10.094,-6.056 11.911,-7.28 1.817,-1.225 5.35,-3.848 2.661,-8.506 -2.689,-4.661 -7.751,-3.68 -11.248,-1.663 -3.495,2.018 -9.146,5.343 -12.677,6.961 -3.531,1.617 -13.08,6.934 -17.366,9.6 -4.284,2.669 -15.476,11.528 -17.631,8.467 -2.157,-3.064 10.719,-15.736 13.251,-18.749 2.53,-3.014 8.428,-8.942 10.523,-11.702 2.094,-2.762 13.003,-11.776 7.412,-17.091 -5.59,-5.315 -10.674,0.338 -13.873,3.543 -3.197,3.203 -15.055,15.287 -19.832,19.791 -4.777,4.504 -19.202,20.206 -26.726,21.637 -7.521,1.428 -6.155,-0.914 -3.905,-6.096 2.252,-5.18 6.956,-12.164 7.417,-18.935 0.271,-3.987 -0.559,-11.227 -5.174,-12.835 -4.616,-1.606 -3.995,2.499 -6.167,6.47 -2.172,3.972 -9.324,14.117 -11.016,18.587 -1.689,4.471 -6.729,8.237 -8.522,11.132 -3.469,5.593 -5.986,14.518 -7.906,18.928 -1.921,4.408 -5.18,12.886 -5,15.892 0.178,3.001 -201.279,118.294 -207.625,121.762" /></g><g
             transform="translate(167.9282,352.2676)"
             id="g44"><path
               inkscape:connector-curvature="0"
               id="path46"
               style="fill:#ffe300;fill-opacity:1;fill-rule:nonzero;stroke:none"
               d="m 0,0 c -2.25,0.817 -6.235,0.317 -9.233,-5.974 -2.996,-6.292 -9.282,-17.388 -11.808,-21.292 -2.526,-3.903 -5.26,-9.332 -7.175,-8.486 -1.917,0.845 -1.781,7.233 -0.673,12.025 1.11,4.79 3.215,16.208 3.666,21.615 0.449,5.408 3.217,18.223 3.336,20.919 0.121,2.695 -1.616,5.403 -4.88,6.303 -3.264,0.903 -6.396,-0.703 -8.062,-7.386 -1.667,-6.683 -2.776,-15.501 -3.454,-19.417 -0.68,-3.916 -5.937,-24.157 -7.178,-26.946 -1.241,-2.788 -4.698,-1.567 -4.852,2.28 -0.155,3.845 -1.687,16.132 -2.632,21.423 -0.947,5.291 -2.408,14.734 -2.868,18.219 -0.459,3.486 -1.174,11.648 -1.506,13.8 -0.332,2.154 -1.196,6.444 -6.526,6 -5.332,-0.448 -6.594,-5.42 -6.259,-9.42 0.335,-3.998 0.933,-10.492 0.893,-14.353 -0.04,-3.865 0.7,-14.708 1.285,-19.695 0.585,-4.982 3.818,-18.807 0.15,-19.45 -3.67,-0.644 -9.619,16.311 -11.258,19.864 -1.641,3.555 -4.476,11.371 -6.074,14.426 -1.598,3.055 -5.089,16.688 -12.239,13.908 -7.151,-2.779 -4.218,-9.748 -2.689,-13.984 1.53,-4.233 7.381,-20.021 9.411,-26.227 2.029,-6.207 10.048,-25.838 8.149,-33.213 -1.899,-7.373 -3.428,-5.153 -7.138,-0.932 -3.708,4.221 -8.001,11.411 -13.897,14.694 -3.474,1.932 -10.34,4.25 -13.741,0.779 -3.401,-3.472 0.557,-4.652 3.211,-8.29 2.653,-3.635 8.753,-14.368 12.06,-17.783 3.306,-3.413 4.562,-9.545 6.405,-12.384 3.563,-5.489 10.529,-11.534 13.683,-15.13 3.154,-3.594 9.404,-10.119 12.183,-11.229 0.09,-0.035 2.599,-1.862 6.92,-2.822 4.319,-0.96 13.547,2.059 18.481,2.401 4.705,0.325 11.04,-2.348 16.32,1.919 2.8,2.263 4.267,6.239 4.792,8.1 1.166,4.124 4.212,15.455 4.587,20.183 0.376,4.73 1.052,14.688 2.107,18.131 1.055,3.444 0.898,11.318 0.898,11.318 0,0 5.842,12.401 8.173,16.625 2.332,4.22 8.438,15.472 9.867,20.456 C 3.862,-4.04 2.25,-0.818 0,0" /></g><g
             transform="translate(188.0244,804.4155)"
             id="g48"><path
               inkscape:connector-curvature="0"
               id="path50"
               style="fill:#ffe300;fill-opacity:1;fill-rule:nonzero;stroke:none"
               d="m 0,0 c -1.624,0.963 -4.784,1.16 -8.028,-3.275 -3.243,-4.434 -9.74,-12.11 -12.268,-14.764 -2.529,-2.653 -5.443,-6.459 -6.802,-5.523 -1.361,0.936 -0.32,5.865 1.241,9.415 1.562,3.547 4.866,12.085 6.008,16.208 1.14,4.124 5.162,13.646 5.65,15.716 0.488,2.07 -0.461,4.422 -2.858,5.599 -2.395,1.178 -5.057,0.393 -7.327,-4.541 -2.271,-4.933 -4.423,-11.602 -5.521,-14.536 -1.101,-2.934 -8.14,-17.844 -9.51,-19.822 -1.37,-1.978 -3.869,-0.526 -3.425,2.476 0.444,3.003 1.058,12.746 1.101,16.983 0.042,4.238 0.293,11.767 0.448,14.534 0.155,2.767 0.797,9.195 0.856,10.912 0.059,1.718 0.018,5.167 -4.177,5.604 -4.196,0.434 -5.903,-3.232 -6.229,-6.381 -0.326,-3.146 -0.815,-8.264 -1.412,-11.25 -0.597,-2.987 -1.613,-11.497 -1.891,-15.445 -0.277,-3.946 0.202,-15.13 -2.733,-15.09 -2.938,0.04 -5.062,14.046 -5.811,17.039 -0.75,2.994 -1.801,9.465 -2.592,12.066 -0.789,2.6 -1.496,13.673 -7.443,12.567 -5.947,-1.104 -4.696,-6.933 -4.132,-10.439 0.564,-3.503 2.784,-16.591 3.447,-21.697 0.663,-5.106 3.998,-21.488 1.446,-26.924 -2.552,-5.433 -3.411,-3.489 -5.666,0.324 -2.255,3.813 -4.526,10.013 -8.613,13.42 -2.408,2.006 -7.387,4.808 -10.53,2.617 -3.145,-2.191 -0.252,-3.686 1.271,-6.893 1.523,-3.205 4.676,-12.413 6.737,-15.543 2.061,-3.128 2.136,-8.063 3.147,-10.532 1.956,-4.775 6.467,-10.479 8.383,-13.727 1.916,-3.247 5.803,-9.217 7.793,-10.484 0.065,-0.041 1.74,-1.823 4.947,-3.2 3.205,-1.377 10.796,-0.39 14.669,-0.849 3.692,-0.438 8.208,-3.438 12.924,-0.905 2.501,1.342 4.219,4.208 4.9,5.572 1.506,3.024 5.527,11.356 6.511,14.964 0.984,3.609 2.967,11.224 4.289,13.737 1.322,2.513 2.354,8.636 2.354,8.636 0,0 6.343,8.751 8.768,11.681 2.425,2.929 8.805,10.75 10.641,14.401 C 2.4,-3.695 1.624,-0.963 0,0" /></g><g
             transform="translate(16.083,719.646)"
             id="g52"><path
               inkscape:connector-curvature="0"
               id="path54"
               style="fill:#6dceae;fill-opacity:1;fill-rule:nonzero;stroke:none"
               d="M 0,0 C 1.802,0.523 4.091,2.683 3.078,8.048 2.063,13.413 0.908,23.34 0.7,26.976 c -0.207,3.637 -0.989,8.337 0.613,8.687 1.604,0.352 4.472,-3.751 5.987,-7.296 1.513,-3.542 5.463,-11.739 7.678,-15.366 2.217,-3.629 6.393,-13.016 7.564,-14.775 1.169,-1.761 3.521,-2.67 6.001,-1.73 2.483,0.939 3.721,3.403 1.685,8.4 -2.037,4.998 -5.414,11.089 -6.796,13.88 -1.381,2.791 -7.416,18.024 -7.92,20.363 -0.506,2.337 2.247,3.163 4.122,0.801 1.877,-2.361 8.528,-9.424 11.574,-12.334 3.045,-2.908 8.335,-8.204 10.238,-10.197 1.903,-1.992 6.13,-6.824 7.335,-8.032 1.207,-1.21 3.736,-3.523 6.903,-0.776 3.165,2.748 1.665,6.476 -0.398,8.852 -2.061,2.374 -5.442,6.205 -7.203,8.666 -1.762,2.463 -7.244,8.98 -9.92,11.862 -2.674,2.882 -11.113,10.131 -9.09,12.233 2.024,2.106 13.628,-5.868 16.308,-7.358 2.682,-1.488 8.089,-5.122 10.513,-6.315 2.423,-1.193 10.936,-8.202 14.173,-3.136 3.238,5.064 -1.841,8.116 -4.766,10.088 -2.926,1.97 -13.927,9.25 -18.081,12.237 -4.155,2.988 -18.306,11.695 -20.515,17.239 -2.209,5.541 -0.215,4.844 4.083,3.891 4.297,-0.955 10.337,-3.518 15.587,-2.867 3.09,0.383 8.505,2.092 9.051,5.861 0.545,3.769 -2.504,2.686 -5.864,3.76 -3.36,1.072 -12.182,5.039 -15.853,5.67 -3.669,0.63 -7.299,3.927 -9.778,4.871 -4.794,1.824 -11.995,2.426 -15.652,3.242 -3.657,0.815 -10.629,2.051 -12.9,1.468 -0.073,-0.019 -2.504,-0.024 -5.682,-1.414 -3.176,-1.391 -7.616,-7.569 -10.579,-10.066 -2.826,-2.383 -8.069,-3.62 -9.435,-8.761 -0.725,-2.727 0.187,-5.92 0.714,-7.34 1.17,-3.147 4.485,-11.723 6.433,-14.888 1.949,-3.166 6.127,-9.776 7.053,-12.442 0.925,-2.667 4.666,-7.574 4.666,-7.574 0,0 2.039,-10.546 2.518,-14.295 C -8.456,18.336 -7.115,8.396 -5.714,4.583 -4.311,0.769 -1.802,-0.523 0,0" /></g><g
             transform="translate(149.7305,544.8931)"
             id="g56"><path
               inkscape:connector-curvature="0"
               id="path58"
               style="fill:#ffe300;fill-opacity:1;fill-rule:nonzero;stroke:none"
               d="m 0,0 c -1.276,-0.027 -3.16,-1.043 -3.437,-4.749 -0.276,-3.704 -1.262,-10.432 -1.764,-12.859 -0.503,-2.427 -0.815,-5.653 -1.93,-5.601 -1.116,0.049 -2.28,3.251 -2.653,5.847 -0.372,2.593 -1.528,8.675 -2.345,11.449 -0.82,2.775 -1.915,9.679 -2.375,11.041 -0.46,1.363 -1.846,2.373 -3.642,2.192 -1.796,-0.18 -3.043,-1.582 -2.583,-5.226 0.46,-3.643 1.61,-8.24 2.027,-10.316 0.418,-2.078 1.707,-13.152 1.628,-14.777 -0.079,-1.625 -2.033,-1.685 -2.851,0.197 -0.818,1.882 -3.949,7.694 -5.439,10.141 -1.49,2.448 -4.037,6.859 -4.938,8.503 -0.9,1.644 -2.829,5.563 -3.409,6.569 -0.581,1.007 -1.837,2.972 -4.401,1.723 -2.564,-1.25 -2.233,-3.965 -1.294,-5.888 0.937,-1.923 2.486,-5.036 3.211,-6.962 0.725,-1.929 3.183,-7.176 4.436,-9.541 1.251,-2.365 5.524,-8.613 3.824,-9.639 -1.7,-1.027 -7.926,6.252 -9.425,7.703 -1.501,1.45 -4.417,4.788 -5.801,5.999 -1.382,1.21 -5.746,7.313 -8.764,4.552 -3.019,-2.759 -0.217,-5.658 1.36,-7.468 1.576,-1.809 7.528,-8.528 9.733,-11.222 2.207,-2.693 9.977,-10.904 10.455,-14.937 0.478,-4.03 -0.711,-3.221 -3.368,-1.839 -2.657,1.383 -6.177,4.129 -9.74,4.624 -2.1,0.291 -5.959,0.119 -6.98,-2.262 -1.021,-2.381 1.173,-2.205 3.194,-3.501 2.019,-1.296 7.121,-5.454 9.422,-6.514 2.302,-1.059 4.108,-3.864 5.572,-4.92 2.829,-2.041 7.457,-3.703 9.718,-4.882 2.26,-1.179 6.625,-3.216 8.221,-3.232 0.051,0 1.65,-0.425 3.983,-0.069 2.332,0.355 6.336,3.636 8.723,4.757 2.276,1.068 5.94,0.961 7.741,4.101 0.956,1.664 0.918,3.923 0.82,4.95 -0.216,2.273 -0.887,8.493 -1.612,10.915 -0.724,2.424 -2.308,7.503 -2.448,9.418 -0.14,1.915 -1.736,5.799 -1.736,5.799 0,0 0.513,7.29 0.857,9.838 0.345,2.548 1.211,9.318 0.961,12.07 C 2.698,-1.263 1.276,0.027 0,0" /></g><g
             transform="translate(59.2739,596.0518)"
             id="g60"><path
               inkscape:connector-curvature="0"
               id="path62"
               style="fill:#ffe300;fill-opacity:1;fill-rule:nonzero;stroke:none"
               d="m 0,0 c 0.418,-1.307 0.042,-3.577 -3.627,-5.151 -3.669,-1.573 -10.163,-4.922 -12.455,-6.279 -2.291,-1.358 -5.46,-2.8 -5.02,-3.917 0.441,-1.116 4.1,-1.182 6.87,-0.656 2.765,0.527 9.35,1.475 12.455,1.612 3.106,0.134 10.505,1.43 12.049,1.437 1.546,0.009 3.057,-1.047 3.499,-2.936 0.444,-1.888 -0.545,-3.645 -4.41,-4.448 -3.863,-0.804 -8.936,-1.239 -11.192,-1.54 -2.257,-0.299 -13.963,-2.852 -15.587,-3.501 -1.624,-0.647 -1.004,-2.653 1.194,-2.829 2.199,-0.174 9.199,-1.329 12.205,-1.989 3.008,-0.661 8.38,-1.711 10.365,-2.053 1.985,-0.342 6.641,-0.934 7.867,-1.172 1.225,-0.239 3.662,-0.831 3.286,-3.872 -0.376,-3.043 -3.251,-3.653 -5.533,-3.371 -2.28,0.282 -5.985,0.771 -8.195,0.835 -2.214,0.065 -8.405,0.732 -11.246,1.18 -2.84,0.447 -10.681,2.609 -11.13,0.525 -0.453,-2.088 9.119,-5.875 11.116,-6.894 1.999,-1.019 6.408,-2.818 8.122,-3.802 1.712,-0.983 9.438,-3.289 7.685,-7.32 -1.752,-4.03 -5.675,-2.194 -8.065,-1.223 -2.39,0.971 -11.294,4.676 -14.803,5.977 -3.507,1.304 -14.563,6.336 -18.828,5.415 -4.264,-0.921 -3.027,-1.846 -0.694,-4.065 2.332,-2.218 6.351,-4.838 8.097,-8.286 1.029,-2.033 2.202,-6.015 0.137,-7.884 -2.064,-1.868 -2.651,0.423 -4.674,2.025 -2.021,1.6 -8.027,5.334 -9.907,7.304 -1.879,1.97 -5.36,2.827 -6.945,3.946 -3.062,2.163 -6.365,6.287 -8.354,8.174 -1.985,1.886 -5.579,5.612 -6.152,7.228 -0.019,0.052 -1.007,1.53 -1.46,4.024 -0.452,2.495 1.485,7.709 1.791,10.526 0.292,2.686 -1.096,6.372 1.468,9.299 1.357,1.552 3.667,2.301 4.744,2.561 2.388,0.573 8.942,2.062 11.657,2.169 2.716,0.11 8.431,0.272 10.427,0.798 1.995,0.526 6.499,0.259 6.499,0.259 0,0 7.23,3.064 9.7,4.304 2.47,1.24 9.049,4.481 11.933,5.187 C -2.225,2.302 -0.418,1.307 0,0" /></g><g
             transform="translate(213.8477,32.9766)"
             id="g64"><path
               inkscape:connector-curvature="0"
               id="path66"
               style="fill:#ffe300;fill-opacity:1;fill-rule:nonzero;stroke:none"
               d="m 0,0 c 1.326,0.739 2.741,2.857 0.97,6.907 -1.772,4.049 -4.482,11.672 -5.305,14.503 -0.822,2.832 -2.29,6.398 -1.089,6.966 1.201,0.568 4.207,-2.15 6.045,-4.671 1.835,-2.521 6.436,-8.272 8.84,-10.735 2.408,-2.461 7.402,-9.11 8.645,-10.287 1.242,-1.176 3.263,-1.468 5.05,-0.277 1.787,1.19 2.319,3.358 -0.195,6.933 -2.511,3.574 -6.279,7.767 -7.875,9.719 -1.594,1.951 -9.117,12.879 -9.938,14.631 -0.822,1.753 1.199,2.904 3.107,1.381 1.909,-1.524 8.436,-5.891 11.366,-7.635 2.929,-1.744 8.063,-4.964 9.925,-6.192 1.862,-1.226 6.073,-4.274 7.243,-5.01 1.17,-0.734 3.586,-2.101 5.586,0.639 2,2.742 0.14,5.414 -1.917,6.912 -2.056,1.501 -5.417,3.91 -7.252,5.533 -1.837,1.624 -7.343,5.774 -9.977,7.563 -2.632,1.789 -10.604,5.98 -9.388,8.005 1.216,2.027 11.815,-2.161 14.2,-2.85 2.385,-0.689 7.31,-2.576 9.438,-3.079 2.128,-0.503 10.115,-4.492 11.751,0.092 1.638,4.583 -2.922,6.07 -5.588,7.097 -2.665,1.025 -12.663,4.774 -16.482,6.378 -3.82,1.605 -16.561,5.913 -19.31,9.886 -2.746,3.973 -1.045,3.783 2.518,3.81 3.564,0.025 8.795,-0.904 12.816,0.56 2.37,0.864 6.333,3.193 6.08,6.266 -0.252,3.072 -2.461,1.665 -5.308,1.903 -2.845,0.238 -10.523,1.769 -13.534,1.603 -3.009,-0.169 -6.47,1.775 -8.598,2.071 -4.111,0.57 -9.903,-0.259 -12.936,-0.276 -3.034,-0.02 -8.757,-0.309 -10.444,-1.18 -0.054,-0.028 -1.972,-0.472 -4.227,-2.145 -2.253,-1.672 -4.638,-7.35 -6.523,-9.858 -1.798,-2.392 -5.711,-4.318 -5.857,-8.622 -0.078,-2.282 1.22,-4.637 1.894,-5.662 1.493,-2.272 5.661,-8.438 7.772,-10.579 2.11,-2.145 6.605,-6.606 7.818,-8.54 1.213,-1.937 5.054,-5.131 5.054,-5.131 0,0 3.52,-7.951 4.576,-10.822 C -9.994,12.936 -7.135,5.335 -5.338,2.58 -3.541,-0.175 -1.328,-0.738 0,0" /></g><g
             transform="translate(482.8555,65.8076)"
             id="g68"><path
               inkscape:connector-curvature="0"
               id="path70"
               style="fill:#ffe300;fill-opacity:1;fill-rule:nonzero;stroke:none"
               d="m 0,0 c -0.913,-1.312 -1.271,-3.968 2.274,-6.979 3.546,-3.012 9.628,-8.97 11.716,-11.267 2.084,-2.299 5.119,-4.992 4.245,-6.085 -0.874,-1.092 -4.971,0.091 -7.874,1.626 -2.898,1.537 -9.907,4.851 -13.318,6.07 -3.414,1.216 -11.208,5.197 -12.927,5.737 -1.718,0.538 -3.763,-0.12 -4.903,-2.072 -1.141,-1.951 -0.643,-4.246 3.385,-6.466 4.027,-2.22 9.526,-4.447 11.936,-5.554 2.409,-1.11 14.571,-7.97 16.158,-9.249 1.585,-1.278 0.205,-3.298 -2.301,-2.74 -2.509,0.56 -10.7,1.675 -14.276,1.972 -3.576,0.296 -9.919,0.971 -12.247,1.272 -2.328,0.299 -7.716,1.237 -9.162,1.393 -1.448,0.154 -4.363,0.329 -4.989,-3.184 -0.625,-3.517 2.368,-5.185 5.006,-5.652 2.636,-0.47 6.928,-1.197 9.414,-1.884 2.486,-0.688 9.61,-2.069 12.927,-2.544 3.317,-0.477 12.79,-0.759 12.577,-3.236 -0.214,-2.477 -12.174,-3.412 -14.745,-3.862 -2.576,-0.451 -8.104,-0.941 -10.349,-1.447 -2.246,-0.507 -11.641,-0.423 -11.072,-5.514 0.569,-5.09 5.568,-4.392 8.563,-4.131 2.995,0.261 14.181,1.332 18.534,1.579 4.353,0.247 18.394,2.059 22.827,-0.431 4.433,-2.489 2.736,-3.095 -0.621,-4.765 -3.36,-1.671 -8.735,-3.208 -11.862,-6.45 -1.842,-1.91 -4.517,-5.944 -2.856,-8.734 1.656,-2.79 3.096,-0.437 5.898,0.652 2.801,1.09 10.771,3.187 13.54,4.735 2.769,1.55 6.94,1.31 9.087,2.012 4.152,1.359 9.247,4.818 12.108,6.237 2.86,1.418 8.139,4.335 9.331,5.939 0.039,0.05 1.648,1.356 3.007,3.981 1.36,2.621 0.993,9.092 1.618,12.334 0.594,3.092 3.407,6.721 1.556,10.859 -0.979,2.196 -3.295,3.823 -4.406,4.481 -2.461,1.459 -9.25,5.364 -12.236,6.416 -2.987,1.053 -9.297,3.197 -11.337,4.465 -2.041,1.271 -7.15,2.52 -7.15,2.52 0,0 -7.001,5.893 -9.325,8.12 C 15.426,-7.618 9.212,-1.75 6.24,0.025 3.267,1.801 0.916,1.312 0,0" /></g><g
             transform="translate(270.375,279.375)"
             id="g72"><path
               inkscape:connector-curvature="0"
               id="path74"
               style="fill:#6dceae;fill-opacity:1;fill-rule:nonzero;stroke:none"
               d="m 0,0 c 0.09,-1.516 -0.937,-3.847 -5.304,-4.529 -4.366,-0.68 -12.253,-2.492 -15.082,-3.319 -2.831,-0.827 -6.626,-1.506 -6.46,-2.824 0.166,-1.317 4.074,-2.392 7.187,-2.588 3.113,-0.193 10.434,-0.983 13.805,-1.688 3.369,-0.707 11.659,-1.348 13.321,-1.765 1.658,-0.414 2.99,-1.962 2.946,-4.109 -0.044,-2.147 -1.587,-3.76 -5.952,-3.561 -4.363,0.198 -9.925,1.123 -12.428,1.42 -2.502,0.297 -15.761,0.77 -17.68,0.52 -1.919,-0.248 -1.804,-2.571 0.505,-3.362 2.311,-0.791 9.501,-3.949 12.546,-5.483 3.043,-1.534 8.52,-4.133 10.555,-5.045 2.034,-0.911 6.867,-2.824 8.116,-3.416 1.249,-0.593 3.7,-1.896 2.463,-5.054 -1.237,-3.161 -4.491,-3.027 -6.86,-2.097 -2.369,0.927 -6.207,2.467 -8.563,3.142 -2.355,0.678 -8.814,3.092 -11.738,4.353 -2.923,1.258 -10.74,5.729 -11.795,3.616 -1.057,-2.115 8.17,-8.804 10.032,-10.445 1.864,-1.642 6.101,-4.782 7.668,-6.307 1.568,-1.523 9.224,-6.117 6.237,-9.96 -2.986,-3.843 -6.691,-0.796 -8.988,0.901 -2.298,1.697 -10.832,8.115 -14.236,10.474 -3.405,2.358 -13.885,10.791 -18.712,10.974 -4.827,0.181 -3.753,-1.152 -1.86,-4.17 1.893,-3.02 5.487,-6.932 6.413,-11.112 0.545,-2.462 0.71,-7.055 -2.019,-8.493 -2.725,-1.438 -2.726,1.181 -4.456,3.454 -1.729,2.272 -7.145,7.925 -8.624,10.554 -1.474,2.628 -4.974,4.503 -6.366,6.138 -2.691,3.161 -5.103,8.491 -6.718,11.059 -1.613,2.569 -4.443,7.551 -4.616,9.442 -0.005,0.061 -0.662,1.917 -0.461,4.718 0.198,2.798 3.706,7.861 4.808,10.798 1.051,2.801 0.574,7.136 4.126,9.573 1.882,1.292 4.565,1.462 5.793,1.444 2.717,-0.039 10.158,-0.241 13.097,-0.87 2.943,-0.629 9.12,-2.023 11.404,-2.006 2.285,0.018 7.042,-1.505 7.042,-1.505 0,0 8.598,1.303 11.586,1.954 2.99,0.653 10.936,2.325 14.225,2.291 C -1.754,3.081 -0.09,1.517 0,0" /></g><g
             transform="translate(288.4834,79.1523)"
             id="g76"><path
               inkscape:connector-curvature="0"
               id="path78"
               style="fill:#6dceae;fill-opacity:1;fill-rule:nonzero;stroke:none"
               d="m 0,0 c 3.494,-0.185 8.567,-3.136 9.008,-13.309 0.434,-10.171 2.555,-28.696 3.721,-35.386 1.166,-6.695 1.744,-15.559 4.806,-15.517 3.058,0.042 6.525,8.711 7.772,15.79 1.243,7.078 4.935,23.639 7.415,31.174 2.486,7.532 6.084,26.349 7.466,30.048 1.373,3.691 5.259,6.343 10.166,5.69 4.903,-0.653 8.201,-4.601 6.623,-14.545 -1.578,-9.94 -5.123,-22.435 -6.446,-28.09 -1.324,-5.653 -5.815,-35.889 -5.736,-40.35 0.075,-4.457 5.422,-4.79 7.827,0.295 2.405,5.087 11.484,20.739 15.78,27.315 4.294,6.574 11.654,18.446 14.265,22.871 2.61,4.423 8.232,14.997 9.908,17.704 1.678,2.709 5.292,7.987 12.205,4.342 6.92,-3.646 5.778,-11.063 3.039,-16.249 -2.733,-5.185 -7.245,-13.577 -9.397,-18.797 -2.158,-5.218 -9.345,-19.387 -12.982,-25.758 -3.631,-6.369 -15.882,-23.119 -11.314,-26.077 4.572,-2.964 22.258,16.444 26.496,20.285 4.237,3.845 12.516,12.74 16.412,15.936 3.891,3.197 16.378,19.547 24.407,11.719 8.032,-7.823 0.103,-15.524 -4.374,-20.347 -4.474,-4.825 -21.363,-22.715 -27.64,-29.903 -6.277,-7.191 -28.279,-29.017 -29.938,-40.023 -1.657,-11.005 1.671,-8.889 9.07,-5.332 7.4,3.558 17.283,10.782 27.09,11.826 5.777,0.616 16.338,-0.187 18.927,-6.804 2.595,-6.612 -3.403,-5.941 -9.054,-9.315 -5.645,-3.377 -19.983,-14.324 -26.381,-17.033 -6.397,-2.698 -11.589,-10.231 -15.69,-12.999 -7.93,-5.347 -20.755,-9.5 -27.051,-12.538 -6.296,-3.033 -18.43,-8.232 -22.804,-8.143 -0.142,0.004 -4.56,-1.023 -10.92,0.158 -6.359,1.174 -17.048,10.508 -23.49,13.784 -6.144,3.128 -16.191,3.149 -20.856,11.909 -2.476,4.643 -2.175,10.828 -1.82,13.636 0.789,6.211 3.165,23.195 5.361,29.763 2.195,6.578 6.975,20.364 7.524,25.596 0.547,5.236 5.257,15.738 5.257,15.738 0,0 -0.773,20.023 -1.496,27.032 -0.724,7.012 -2.513,25.635 -1.589,33.159 C -7.505,-3.224 -3.494,0.184 0,0" /></g><g
             transform="translate(79.8076,610.6665)"
             id="g80"><path
               inkscape:connector-curvature="0"
               id="path82"
               style="fill:#ff2bad;fill-opacity:1;fill-rule:nonzero;stroke:none"
               d="m 0,0 c 0.475,1.919 -0.284,5.146 -5.711,7.057 -5.426,1.908 -15.085,6.098 -18.511,7.83 -3.424,1.732 -8.121,3.501 -7.593,5.147 0.525,1.648 5.781,2.095 9.812,1.604 4.028,-0.492 13.586,-1.22 18.063,-1.118 4.479,0.105 15.241,-1.046 17.464,-0.909 2.223,0.137 4.293,1.8 4.747,4.557 0.456,2.759 -1.137,5.189 -6.769,5.972 -5.631,0.785 -12.967,0.923 -16.24,1.137 -3.274,0.216 -20.349,2.76 -22.747,3.536 -2.397,0.773 -1.698,3.718 1.446,4.181 3.144,0.464 13.096,2.797 17.356,4.035 4.261,1.24 11.884,3.265 14.704,3.948 2.822,0.682 9.459,1.983 11.197,2.443 1.74,0.462 5.186,1.546 4.354,5.883 -0.834,4.337 -5.025,4.939 -8.28,4.313 C 10.04,58.992 4.761,57.933 1.588,57.628 -1.587,57.323 -10.425,55.767 -14.466,54.85 c -4.039,-0.916 -15.105,-4.78 -15.953,-1.825 -0.85,2.957 12.547,9.323 15.321,10.98 2.774,1.658 8.943,4.668 11.311,6.248 2.367,1.578 13.253,5.637 10.345,11.263 -2.906,5.627 -8.371,2.609 -11.713,0.984 -3.342,-1.626 -15.79,-7.811 -20.706,-10.02 -4.918,-2.209 -20.33,-10.508 -26.551,-9.595 -6.218,0.914 -4.529,2.364 -1.39,5.778 3.14,3.413 8.667,7.566 10.846,12.692 1.283,3.022 2.585,8.86 -0.562,11.349 -3.148,2.488 -3.771,-0.864 -6.524,-3.361 -2.752,-2.496 -11.029,-8.442 -13.543,-11.455 -2.512,-3.013 -7.436,-4.58 -9.604,-6.342 -4.195,-3.405 -8.548,-9.652 -11.224,-12.555 -2.675,-2.903 -7.484,-8.605 -8.151,-10.983 -0.021,-0.078 -1.302,-2.297 -1.712,-5.927 -0.411,-3.63 2.876,-10.94 3.588,-14.961 0.678,-3.833 -0.962,-9.268 3.003,-13.228 2.102,-2.101 5.495,-2.957 7.068,-3.226 3.487,-0.595 13.055,-2.105 16.969,-1.999 3.915,0.104 12.148,0.421 15.067,-0.144 2.92,-0.565 9.37,0.254 9.37,0.254 0,0 10.69,-3.712 14.361,-5.256 3.669,-1.544 13.44,-5.572 17.655,-6.31 C -2.978,-3.523 -0.475,-1.919 0,0" /></g><g
             transform="translate(300.2764,207.3887)"
             id="g84"><path
               inkscape:connector-curvature="0"
               id="path86"
               style="fill:#ff2bad;fill-opacity:1;fill-rule:nonzero;stroke:none"
               d="m 0,0 c -1.403,-1.392 -2.433,-4.543 1.209,-8.997 3.643,-4.451 9.715,-13.053 11.74,-16.314 2.025,-3.26 5.117,-7.212 3.81,-8.344 -1.305,-1.134 -6.027,1.217 -9.216,3.731 -3.185,2.515 -10.97,8.107 -14.847,10.348 -3.881,2.239 -12.475,8.818 -14.445,9.856 -1.97,1.039 -4.603,0.696 -6.424,-1.424 -1.825,-2.12 -1.728,-5.023 2.676,-8.621 4.402,-3.597 10.597,-7.53 13.281,-9.415 2.685,-1.886 15.946,-12.938 17.592,-14.847 1.645,-1.908 -0.483,-4.06 -3.41,-2.821 -2.926,1.24 -12.64,4.421 -16.923,5.578 -4.285,1.157 -11.849,3.39 -14.613,4.275 -2.764,0.884 -9.11,3.224 -10.834,3.734 -1.726,0.511 -5.234,1.376 -6.778,-2.76 -1.543,-4.14 1.724,-6.833 4.83,-7.99 3.102,-1.159 8.162,-2.999 11.031,-4.387 2.871,-1.391 11.229,-4.658 15.158,-5.975 3.926,-1.318 15.388,-3.773 14.575,-6.737 -0.812,-2.968 -15.565,-1.439 -18.796,-1.412 -3.231,0.027 -10.067,0.662 -12.91,0.544 -2.842,-0.117 -14.252,2.077 -14.693,-4.241 -0.444,-6.318 5.793,-6.582 9.493,-6.931 3.7,-0.348 17.549,-1.539 22.897,-2.208 5.349,-0.671 22.83,-1.595 27.668,-5.61 4.837,-4.013 2.64,-4.374 -1.817,-5.657 -4.457,-1.284 -11.337,-1.957 -15.864,-5.203 -2.667,-1.914 -6.814,-6.224 -5.42,-9.985 1.394,-3.762 3.67,-1.224 7.32,-0.523 3.648,0.701 13.811,1.478 17.523,2.742 3.713,1.269 8.734,0.047 11.503,0.424 5.353,0.729 12.32,3.801 16.115,4.889 3.794,1.089 10.866,3.458 12.673,5.143 0.059,0.056 2.307,1.285 4.545,4.173 2.237,2.887 3.231,10.84 4.714,14.645 1.413,3.627 5.641,7.417 4.313,12.861 -0.703,2.887 -3.156,5.382 -4.36,6.43 -2.669,2.322 -10.057,8.587 -13.455,10.532 -3.399,1.945 -10.596,5.956 -12.796,7.956 -2.2,2 -8.135,4.655 -8.135,4.655 0,0 -7.201,8.73 -9.534,11.957 C 17.065,-12.701 10.813,-4.181 7.597,-1.358 4.375,1.462 1.403,1.393 0,0" /></g><g
             transform="translate(650.2266,-2.0381)"
             id="g88"><path
               inkscape:connector-curvature="0"
               id="path90"
               style="fill:#ff2bad;fill-opacity:1;fill-rule:nonzero;stroke:none"
               d="M 0,0 C -1.014,0.918 -3.229,1.511 -6.169,-1.17 -9.108,-3.853 -14.823,-8.367 -17,-9.887 c -2.177,-1.52 -4.791,-3.803 -5.622,-2.944 -0.832,0.86 0.616,4.21 2.234,6.506 1.618,2.293 5.191,7.879 6.594,10.64 1.401,2.764 5.626,8.946 6.27,10.345 0.645,1.401 0.309,3.206 -1.222,4.385 -1.533,1.182 -3.535,1.006 -5.857,-2.17 -2.32,-3.175 -4.805,-7.6 -6.007,-9.525 -1.203,-1.923 -8.343,-11.496 -9.601,-12.704 -1.256,-1.208 -2.822,0.182 -2.075,2.25 0.747,2.067 2.584,8.895 3.223,11.898 0.638,3.002 1.899,8.31 2.408,10.253 0.507,1.942 1.887,6.412 2.175,7.622 0.289,1.212 0.755,3.667 -2.16,4.579 -2.917,0.911 -4.655,-1.446 -5.338,-3.634 -0.685,-2.186 -1.768,-5.75 -2.62,-7.784 -0.852,-2.034 -2.798,-7.929 -3.561,-10.692 -0.765,-2.761 -2.032,-10.769 -4.111,-10.319 -2.081,0.451 -1.574,10.699 -1.675,12.931 -0.103,2.233 0.082,6.978 -0.106,8.938 -0.186,1.958 0.904,9.921 -3.476,9.991 -4.381,0.07 -4.33,-4.247 -4.435,-6.817 -0.101,-2.569 -0.408,-12.177 -0.672,-15.897 -0.263,-3.721 -0.251,-15.828 -2.843,-19.32 -2.592,-3.491 -2.922,-1.987 -3.975,1.044 -1.053,3.031 -1.775,7.757 -4.186,10.763 -1.422,1.772 -4.552,4.476 -7.099,3.372 -2.546,-1.103 -0.708,-2.58 -0.088,-5.076 0.621,-2.493 1.535,-9.484 2.548,-12.002 1.014,-2.517 0.357,-6.029 0.72,-7.929 0.703,-3.671 3.085,-8.368 3.979,-10.949 0.892,-2.58 2.793,-7.377 4.024,-8.562 0.041,-0.038 0.974,-1.544 3.053,-2.984 2.077,-1.437 7.607,-1.827 10.291,-2.71 2.558,-0.841 5.333,-3.62 9.044,-2.5 1.968,0.594 3.6,2.382 4.278,3.252 1.505,1.931 5.557,7.267 6.774,9.686 1.218,2.421 3.719,7.541 5.019,9.136 1.299,1.593 2.911,5.792 2.911,5.792 0,0 5.762,5.3 7.905,7.031 2.142,1.73 7.795,6.367 9.625,8.693 C 1.173,-2.967 1.015,-0.917 0,0" /></g><g
             transform="translate(230.542,435.0991)"
             id="g92"><path
               inkscape:connector-curvature="0"
               id="path94"
               style="fill:#ff2bad;fill-opacity:1;fill-rule:nonzero;stroke:none"
               d="m 0,0 c -1.609,1.107 -3.164,3.99 -0.404,8.961 2.76,4.97 7.154,14.401 8.551,17.928 1.397,3.526 3.709,7.913 2.24,8.784 C 8.917,36.547 4.739,33.432 2.081,30.426 -0.575,27.42 -7.165,20.615 -10.542,17.755 -13.922,14.896 -21.124,6.988 -22.858,5.633 c -1.734,-1.357 -4.354,-1.486 -6.498,0.257 -2.146,1.741 -2.561,4.581 1.088,8.853 3.65,4.273 8.984,9.185 11.263,11.489 2.279,2.307 13.236,15.384 14.5,17.529 1.266,2.144 -1.183,3.862 -3.81,2.143 -2.629,-1.718 -11.517,-6.519 -15.48,-8.396 -3.962,-1.878 -10.926,-5.378 -13.46,-6.724 -2.533,-1.345 -8.293,-4.735 -9.88,-5.534 -1.589,-0.799 -4.847,-2.257 -7.076,1.495 -2.227,3.754 0.477,6.946 3.294,8.617 2.814,1.673 7.41,4.349 9.957,6.205 2.548,1.856 10.102,6.501 13.691,8.473 3.588,1.971 14.303,6.37 12.992,9.11 -1.311,2.744 -15.39,-1.334 -18.527,-1.928 -3.139,-0.593 -9.674,-2.411 -12.46,-2.796 -2.785,-0.386 -13.495,-4.523 -15.033,1.544 -1.542,6.066 4.478,7.418 8.015,8.407 3.537,0.99 16.795,4.579 21.879,6.17 5.084,1.591 21.922,5.56 25.922,10.315 3.998,4.753 1.798,4.717 -2.761,5.181 -4.559,0.466 -11.369,-0.088 -16.342,2.274 -2.929,1.394 -7.72,4.857 -7.024,8.76 0.695,3.902 3.354,1.834 7.027,1.793 3.671,-0.041 13.689,0.988 17.523,0.409 3.833,-0.579 8.501,1.49 11.26,1.61 5.335,0.232 12.649,-1.533 16.531,-1.924 3.881,-0.393 11.176,-1.455 13.228,-2.777 0.067,-0.042 2.468,-0.844 5.152,-3.26 2.683,-2.414 5.047,-9.974 7.157,-13.412 2.012,-3.281 6.788,-6.224 6.453,-11.751 C 55.547,64.833 53.6,61.976 52.613,60.746 50.424,58.02 44.34,50.629 41.377,48.141 38.413,45.652 32.118,40.487 30.33,38.156 28.542,35.823 23.237,32.2 23.237,32.2 c 0,0 -5.471,-9.754 -7.173,-13.303 C 14.364,15.349 9.782,5.965 7.148,2.656 4.512,-0.653 1.609,-1.108 0,0" /></g><g
             transform="translate(59.4077,352.1738)"
             id="g96"><path
               inkscape:connector-curvature="0"
               id="path98"
               style="fill:#6dceae;fill-opacity:1;fill-rule:nonzero;stroke:none"
               d="m 0,0 c -1.943,-0.8 -5.457,-0.504 -8.314,4.906 -2.855,5.412 -8.771,14.917 -11.126,18.25 -2.358,3.333 -4.952,7.997 -6.602,7.187 -1.651,-0.812 -1.3,-6.411 -0.155,-10.573 1.146,-4.162 3.405,-14.103 3.996,-18.829 0.59,-4.727 3.48,-15.871 3.682,-18.23 0.204,-2.359 -1.223,-4.797 -4.053,-5.704 -2.831,-0.909 -5.635,0.386 -7.339,6.187 -1.703,5.802 -2.995,13.498 -3.732,16.909 -0.736,3.41 -6.08,20.974 -7.268,23.376 -1.19,2.401 -4.178,1.205 -4.174,-2.173 0.002,-3.38 -0.897,-14.213 -1.535,-18.889 -0.64,-4.676 -1.581,-13.011 -1.858,-16.086 -0.277,-3.073 -0.609,-10.259 -0.823,-12.16 -0.213,-1.899 -0.816,-5.694 -5.507,-5.496 -4.695,0.201 -5.98,4.513 -5.831,8.034 0.149,3.521 0.439,9.239 0.265,12.624 -0.175,3.388 0.083,12.929 0.416,17.321 0.333,4.394 2.67,16.637 -0.572,17.068 -3.242,0.432 -7.847,-14.654 -9.158,-17.831 -1.311,-3.178 -3.515,-10.136 -4.807,-12.873 -1.29,-2.736 -3.86,-14.823 -10.234,-12.641 -6.372,2.179 -4.05,8.398 -2.862,12.169 1.188,3.767 5.751,17.828 7.307,23.346 1.556,5.517 7.882,23.026 5.95,29.426 -1.934,6.4 -3.194,4.396 -6.296,0.56 -3.1,-3.835 -6.606,-10.298 -11.659,-13.39 -2.978,-1.821 -8.917,-4.102 -12.025,-1.179 -3.11,2.922 0.32,4.101 2.517,7.386 2.195,3.286 7.159,12.92 9.936,16.036 2.777,3.114 3.657,8.537 5.171,11.094 2.928,4.944 8.82,10.499 11.456,13.765 2.637,3.268 7.884,9.217 10.281,10.292 0.079,0.034 2.213,1.726 5.968,2.724 3.756,0.999 11.958,-1.317 16.298,-1.438 4.14,-0.115 9.6,2.459 14.386,-1.095 2.538,-1.884 3.968,-5.318 4.496,-6.932 1.171,-3.575 4.253,-13.403 4.752,-17.538 0.501,-4.135 1.453,-12.846 2.504,-15.828 1.049,-2.983 1.196,-9.895 1.196,-9.895 0,0 5.572,-10.669 7.77,-14.287 C -5.386,21.974 0.377,12.325 1.81,8.005 3.242,3.682 1.945,0.798 0,0" /></g><g
             transform="translate(66.9995,16.5439)"
             id="g100"><path
               inkscape:connector-curvature="0"
               id="path102"
               style="fill:#6dceae;fill-opacity:1;fill-rule:nonzero;stroke:none"
               d="m 0,0 c 1.303,1.649 4.511,3.112 9.651,-0.206 5.14,-3.321 14.953,-8.711 18.638,-10.464 3.688,-1.752 8.233,-4.548 9.275,-3.033 1.042,1.516 -2.005,6.226 -5.042,9.295 C 29.485,-1.342 22.647,6.22 19.817,10.051 16.989,13.884 9.011,22.185 7.68,24.143 c -1.333,1.958 -1.283,4.781 0.741,6.959 2.023,2.178 5.102,2.422 9.428,-1.802 4.327,-4.225 9.221,-10.302 11.534,-12.915 2.312,-2.613 15.572,-15.31 17.784,-16.822 2.213,-1.511 4.233,0.995 2.576,3.939 -1.658,2.945 -6.178,12.831 -7.912,17.22 -1.732,4.39 -4.993,12.118 -6.257,14.935 -1.263,2.816 -4.492,9.243 -5.237,11.005 -0.744,1.76 -2.077,5.365 2.11,7.489 4.192,2.124 7.425,-1.006 9.018,-4.149 1.595,-3.144 4.141,-8.271 5.951,-11.137 1.812,-2.868 6.259,-11.313 8.119,-15.306 1.862,-3.994 5.819,-15.813 8.857,-14.601 3.039,1.211 -0.333,16.619 -0.747,20.031 -0.414,3.413 -1.899,10.559 -2.113,13.578 -0.214,3.017 -3.892,14.815 2.734,16.034 6.622,1.22 7.644,-5.34 8.454,-9.209 0.809,-3.867 3.716,-18.361 5.061,-23.934 1.345,-5.572 4.404,-23.936 9.223,-28.57 4.819,-4.634 4.937,-2.268 5.763,2.595 0.825,4.862 0.717,12.213 3.608,17.383 1.705,3.047 5.766,7.945 9.907,6.918 4.143,-1.026 1.73,-3.733 1.423,-7.673 -0.305,-3.94 0.085,-14.771 -0.81,-18.846 -0.897,-4.076 0.991,-9.235 0.923,-12.205 -0.131,-5.747 -2.548,-13.474 -3.247,-17.613 -0.699,-4.141 -2.361,-11.896 -3.925,-14.008 -0.052,-0.069 -1.084,-2.588 -3.869,-5.297 -2.785,-2.711 -11.071,-4.708 -14.915,-6.728 -3.665,-1.927 -7.166,-6.845 -13.079,-6.09 -3.135,0.4 -6.063,2.694 -7.314,3.843 -2.772,2.543 -10.272,9.604 -12.732,12.965 -2.461,3.358 -7.557,10.487 -9.933,12.573 -2.376,2.088 -5.889,8.042 -5.889,8.042 0,0 -10.083,6.573 -13.77,8.652 -3.689,2.08 -13.438,7.67 -16.804,10.736 C -1.024,-4.798 -1.306,-1.648 0,0" /></g><g
             transform="translate(-15.271,268.6611)"
             id="g104"><path
               inkscape:connector-curvature="0"
               id="path106"
               style="fill:#6dceae;fill-opacity:1;fill-rule:nonzero;stroke:none"
               d="M 0,0 C 2.799,-0.75 6.401,-4.016 5.002,-12.335 3.6,-20.655 2.125,-36.023 1.916,-41.646 c -0.208,-5.626 -1.269,-12.91 1.217,-13.402 2.488,-0.494 6.792,5.936 9.021,11.455 2.228,5.519 8.075,18.304 11.384,23.977 3.311,5.673 9.473,20.303 11.227,23.057 1.752,2.756 5.356,4.232 9.216,2.857 3.864,-1.373 5.852,-5.14 2.861,-12.923 -2.99,-7.784 -8.017,-17.298 -10.065,-21.651 -2.048,-4.354 -10.897,-28.073 -11.605,-31.7 -0.707,-3.626 3.569,-4.816 6.393,-1.113 2.826,3.706 12.881,14.823 17.495,19.412 4.614,4.588 12.623,12.934 15.502,16.072 2.876,3.134 9.255,10.73 11.081,12.634 1.822,1.902 5.661,5.556 10.635,1.413 4.976,-4.152 2.774,-9.953 -0.336,-13.685 -3.111,-3.735 -8.216,-9.757 -10.859,-13.611 -2.645,-3.858 -10.915,-14.097 -14.957,-18.63 -4.042,-4.537 -16.852,-15.995 -13.661,-19.181 3.19,-3.189 20.866,9.486 24.962,11.871 4.097,2.385 12.337,8.163 16.044,10.081 3.704,1.918 16.638,13.01 21.796,5.283 5.158,-7.721 -2.593,-12.592 -7.052,-15.73 -4.455,-3.133 -21.226,-14.72 -27.55,-19.462 -6.324,-4.744 -27.913,-18.634 -31.154,-27.266 -3.239,-8.629 -0.18,-7.488 6.43,-5.882 6.607,1.606 15.86,5.753 23.984,4.912 4.787,-0.496 13.206,-2.969 14.165,-8.773 0.96,-5.807 -3.785,-4.225 -8.943,-5.989 -5.156,-1.762 -18.66,-8.163 -24.311,-9.252 -5.649,-1.087 -11.153,-6.291 -14.954,-7.826 -7.346,-2.966 -18.452,-4.12 -24.076,-5.494 -5.626,-1.373 -16.355,-3.499 -19.88,-2.67 -0.116,0.03 -3.871,-0.037 -8.822,2.012 -4.949,2.049 -11.998,11.454 -16.653,15.218 -4.44,3.593 -12.577,5.343 -14.846,13.244 -1.204,4.189 0.104,9.15 0.876,11.36 1.71,4.896 6.562,18.247 9.477,23.195 2.912,4.95 9.161,15.292 10.506,19.439 1.347,4.147 6.973,11.844 6.973,11.844 0,0 2.825,16.354 3.447,22.158 0.622,5.806 2.385,21.204 4.431,27.136 C -6.635,-1.319 -2.8,0.754 0,0" /></g><g
             transform="translate(338.2861,938.9004)"
             id="g108"><path
               inkscape:connector-curvature="0"
               id="path110"
               style="fill:#6dceae;fill-opacity:1;fill-rule:nonzero;stroke:none"
               d="m 0,0 c 0,0 -106.134,-231.482 -107.391,-234.173 -1.26,-2.691 -3.807,-9.282 -4.104,-14.031 -0.299,-4.749 -1.279,-17.74 -2.629,-22.832 -1.347,-5.091 -4.305,-15.772 -4.468,-19.767 -0.164,-3.997 -3.225,-12.187 -3.225,-12.187 0,0 1.552,-15.142 2.439,-20.423 0.889,-5.28 3.142,-19.314 2.803,-25.062 -0.34,-5.748 -3.215,-8.529 -5.873,-8.557 -2.658,-0.029 -6.648,1.963 -7.473,9.656 -0.82,7.694 -3.32,21.633 -4.528,26.652 -1.21,5.019 -2.073,11.713 -4.392,11.533 -2.319,-0.181 -4.529,-6.923 -5.132,-12.35 -0.601,-5.426 -2.6,-18.164 -4.12,-23.992 -1.519,-5.831 -3.34,-20.275 -4.206,-23.141 -0.866,-2.868 -3.683,-5.065 -7.434,-4.806 -3.75,0.257 -6.44,3.091 -5.725,10.706 0.714,7.614 2.8,17.26 3.531,21.611 0.731,4.352 2.676,27.491 2.403,30.869 -0.274,3.377 -4.344,3.371 -5.922,-0.601 -1.578,-3.972 -7.708,-16.28 -10.647,-21.474 -2.939,-5.193 -7.946,-14.547 -9.711,-18.027 -1.764,-3.483 -5.518,-11.769 -6.659,-13.902 -1.141,-2.134 -3.626,-6.309 -9.045,-3.88 -5.421,2.431 -4.913,8.103 -3.089,12.17 1.824,4.065 4.84,10.647 6.221,14.708 1.381,4.061 6.148,15.148 8.598,20.156 2.447,5.006 10.924,18.296 7.318,20.319 -3.607,2.026 -16.082,-13.543 -19.107,-16.663 -3.028,-3.118 -8.875,-10.263 -11.674,-12.874 -2.799,-2.611 -11.475,-15.608 -17.942,-10.063 -6.467,5.544 -0.829,11.764 2.333,15.638 3.161,3.872 15.103,18.255 19.515,24.01 4.411,5.755 20.039,23.364 20.765,31.789 0.724,8.423 -1.694,6.66 -7.134,3.605 -5.439,-3.056 -12.582,-9.007 -19.967,-10.274 -4.351,-0.746 -12.396,-0.647 -14.682,4.242 -2.283,4.891 2.297,4.668 6.416,7.501 4.118,2.832 14.459,11.829 19.18,14.189 4.721,2.358 8.293,8.317 11.27,10.613 5.755,4.439 15.277,8.206 19.904,10.812 4.629,2.604 13.578,7.136 16.896,7.278 3.319,0.14 107.34,234.397 110.438,241.759 L 0.321,0.263" /></g><g
             transform="translate(238.3091,562.9941)"
             id="g112"><path
               inkscape:connector-curvature="0"
               id="path114"
               style="fill:#ff2bad;fill-opacity:1;fill-rule:nonzero;stroke:none"
               d="m 0,0 c 1.366,-0.068 3.454,0.877 4.03,4.814 0.574,3.938 2.135,11.052 2.856,13.607 0.72,2.556 1.296,5.978 2.483,5.84 1.189,-0.138 2.191,-3.647 2.394,-6.449 0.202,-2.799 0.978,-9.384 1.642,-12.41 0.668,-3.026 1.317,-10.485 1.705,-11.975 0.389,-1.492 1.793,-2.677 3.725,-2.618 1.934,0.058 3.371,1.462 3.154,5.39 -0.217,3.926 -1.097,8.924 -1.388,11.176 -0.288,2.25 -0.83,14.18 -0.623,15.911 0.207,1.73 2.298,1.648 3.031,-0.425 0.732,-2.073 3.638,-8.519 5.047,-11.247 1.408,-2.727 3.797,-7.632 4.634,-9.457 0.838,-1.824 2.603,-6.157 3.147,-7.275 0.545,-1.121 1.74,-3.316 4.572,-2.174 2.834,1.144 2.686,4.069 1.827,6.193 C 41.381,1.027 39.96,4.47 39.331,6.583 38.7,8.698 36.47,14.49 35.31,17.112 c -1.159,2.62 -5.252,9.618 -3.359,10.587 1.896,0.97 7.997,-7.279 9.49,-8.941 1.496,-1.663 4.359,-5.45 5.746,-6.848 1.384,-1.396 5.587,-8.247 9.021,-5.525 3.433,2.721 0.658,6.029 -0.89,8.083 -1.549,2.052 -7.401,9.679 -9.553,12.724 -2.155,3.045 -9.836,12.403 -10.045,16.747 -0.205,4.343 1.003,3.389 3.738,1.711 2.734,-1.677 6.287,-4.876 10.058,-5.673 2.222,-0.47 6.358,-0.578 7.63,1.89 1.269,2.467 -1.088,2.445 -3.15,3.983 -2.06,1.535 -7.198,6.364 -9.577,7.67 -2.379,1.303 -4.097,4.437 -5.581,5.676 -2.87,2.394 -7.69,4.519 -10.017,5.95 -2.325,1.43 -6.835,3.936 -8.539,4.073 -0.055,0.004 -1.731,0.577 -4.252,0.373 -2.517,-0.204 -7.043,-3.407 -9.677,-4.425 -2.513,-0.969 -6.42,-0.579 -8.582,-3.796 -1.145,-1.707 -1.275,-4.124 -1.249,-5.227 0.06,-2.448 0.307,-9.143 0.899,-11.785 0.592,-2.645 1.9,-8.191 1.906,-10.248 0.004,-2.056 1.418,-6.326 1.418,-6.326 0,0 -1.099,-7.751 -1.659,-10.448 C -1.476,14.641 -2.909,7.472 -2.851,4.513 -2.788,1.552 -1.366,0.066 0,0" /></g><g
             id="g116"><g
               id="g118" /><g
               id="g124"><g
                 id="g126"
                 clip-path="url(#clipPath120)"><g
                   id="g128"
                   transform="translate(-15.1104,108.0166)" /><g
                   id="g132"
                   transform="translate(45.71,29.0479)" /><g
                   id="g136"
                   transform="translate(157.8184,85.1064)" /><g
                   id="g140"
                   transform="translate(-17.6729,298.9082)" /><g
                   id="g144"
                   transform="translate(306.1621,56.0723)" /><g
                   id="g148"
                   transform="translate(332.6279,164.3047)" /><g
                   id="g152"
                   transform="translate(55.8047,213.6387)" /><g
                   id="g156"
                   transform="translate(194.1465,222.2803)" /><g
                   id="g160"
                   transform="translate(135.5059,178.1709)" /><g
                   id="g164"
                   transform="translate(104.7061,-15.9385)" /><g
                   id="g168"
                   transform="translate(60.5771,97.8633)" /><g
                   id="g172"
                   transform="translate(155.1113,237.458)" /><g
                   id="g176"
                   transform="translate(33.0625,189.2852)" /><g
                   id="g180"
                   transform="translate(202.373,152.6816)" /><g
                   id="g184"
                   transform="translate(267.3018,101.2393)" /><g
                   id="g188"
                   transform="translate(195.3691,6.0596)" /><g
                   id="g192"
                   transform="translate(259.2598,85.3994)" /><g
                   id="g196"
                   transform="translate(272.667,195.4697)" /><g
                   id="g200"
                   transform="translate(12.666,414.6953)" /><g
                   id="g204"
                   transform="translate(-23.9854,345.8066)" /><g
                   id="g208"
                   transform="translate(62.2617,319.8379)" /><g
                   id="g212"
                   transform="translate(185.5957,391.7852)" /><g
                   id="g216"
                   transform="translate(333.9395,362.752)" /><g
                   id="g220"
                   transform="translate(307.4375,278.4014)" /><g
                   id="g224"
                   transform="translate(-0.3691,12.5352)" /><g
                   id="g228"
                   transform="translate(83.582,520.3179)" /><g
                   id="g232"
                   transform="translate(221.9238,528.9595)" /><g
                   id="g236"
                   transform="translate(163.2832,484.8501)" /><g
                   id="g240"
                   transform="translate(132.4824,290.7412)" /><g
                   id="g244"
                   transform="translate(88.3535,404.542)" /><g
                   id="g248"
                   transform="translate(182.8887,544.1372)" /><g
                   id="g252"
                   transform="translate(60.8398,495.9644)" /><g
                   id="g256"
                   transform="translate(230.1504,459.3608)" /><g
                   id="g260"
                   transform="translate(295.0781,407.918)" /><g
                   id="g264"
                   transform="translate(223.1465,312.7393)" /><g
                   id="g268"
                   transform="translate(287.0371,392.0781)" /><g
                   id="g272"
                   transform="translate(300.4434,502.1489)" /><g
                   id="g276"
                   transform="translate(12.666,707.708)" /><g
                   id="g280"
                   transform="translate(-3.707,622.7622)" /><g
                   id="g284"
                   transform="translate(73.4863,628.7393)" /><g
                   id="g288"
                   transform="translate(185.5957,684.7979)" /><g
                   id="g292"
                   transform="translate(-13.4521,512.9272)" /><g
                   id="g296"
                   transform="translate(-4.9736,561.9785)" /><g
                   id="g300"
                   transform="translate(307.4375,571.4126)" /><g
                   id="g304"
                   transform="translate(363.6631,1.8887)" /><g
                   id="g308"
                   transform="translate(296.9668,772.4805)" /><g
                   id="g312"
                   transform="translate(221.9238,821.9717)" /><g
                   id="g316"
                   transform="translate(163.2832,777.8623)" /><g
                   id="g320"
                   transform="translate(132.4824,583.7524)" /><g
                   id="g324"
                   transform="translate(88.3535,697.5547)" /><g
                   id="g328"
                   transform="translate(182.8887,837.1494)" /><g
                   id="g332"
                   transform="translate(60.8398,788.9766)" /><g
                   id="g336"
                   transform="translate(230.1504,752.373)" /><g
                   id="g340"
                   transform="translate(299.9121,709.8608)" /><g
                   id="g344"
                   transform="translate(223.1465,605.7505)" /><g
                   id="g348"
                   transform="translate(311.3389,691.522)" /><g
                   id="g352"
                   transform="translate(415.3682,108.0166)" /><g
                   id="g356"
                   transform="translate(476.1885,29.0479)" /><g
                   id="g360"
                   transform="translate(588.2969,85.1064)" /><g
                   id="g364"
                   transform="translate(412.8057,298.9082)" /><g
                   id="g368"
                   transform="translate(736.6406,56.0723)" /><g
                   id="g372"
                   transform="translate(763.1064,164.3047)" /><g
                   id="g376"
                   transform="translate(486.2832,213.6387)" /><g
                   id="g380"
                   transform="translate(624.625,222.2803)" /><g
                   id="g384"
                   transform="translate(565.9844,178.1709)" /><g
                   id="g388"
                   transform="translate(535.1846,-15.9385)" /><g
                   id="g392"
                   transform="translate(491.0557,97.8633)" /><g
                   id="g396"
                   transform="translate(382.0518,57.3164)" /><g
                   id="g400"
                   transform="translate(585.5898,237.458)" /><g
                   id="g404"
                   transform="translate(463.541,189.2852)" /><g
                   id="g408"
                   transform="translate(632.8516,152.6816)" /><g
                   id="g412"
                   transform="translate(697.7803,101.2393)" /><g
                   id="g416"
                   transform="translate(625.8477,6.0596)" /><g
                   id="g420"
                   transform="translate(689.7383,85.3994)" /><g
                   id="g424"
                   transform="translate(703.1455,195.4697)" /><g
                   id="g428"
                   transform="translate(443.1445,414.6953)" /><g
                   id="g432"
                   transform="translate(406.4932,345.8066)" /><g
                   id="g436"
                   transform="translate(492.7402,319.8379)" /><g
                   id="g440"
                   transform="translate(616.0742,391.7852)" /><g
                   id="g444"
                   transform="translate(764.418,362.752)" /><g
                   id="g448"
                   transform="translate(737.916,278.4014)" /><g
                   id="g452"
                   transform="translate(430.1094,12.5352)" /><g
                   id="g456"
                   transform="translate(514.0605,520.3179)" /><g
                   id="g460"
                   transform="translate(652.4023,528.9595)" /><g
                   id="g464"
                   transform="translate(593.7617,484.8501)" /><g
                   id="g468"
                   transform="translate(562.9609,290.7412)" /><g
                   id="g472"
                   transform="translate(518.832,404.542)" /><g
                   id="g476"
                   transform="translate(613.3672,544.1372)" /><g
                   id="g480"
                   transform="translate(491.3184,495.9644)" /><g
                   id="g484"
                   transform="translate(660.6289,459.3608)" /><g
                   id="g488"
                   transform="translate(725.5566,407.918)" /><g
                   id="g492"
                   transform="translate(653.625,312.7393)" /><g
                   id="g496"
                   transform="translate(717.5156,392.0781)" /><g
                   id="g500"
                   transform="translate(730.9219,502.1489)" /><g
                   id="g504"
                   transform="translate(443.1445,707.708)" /><g
                   id="g508"
                   transform="translate(352.0947,622.2124)" /><g
                   id="g512"
                   transform="translate(426.7715,622.7622)" /><g
                   id="g516"
                   transform="translate(503.9648,628.7393)" /><g
                   id="g520"
                   transform="translate(355.959,430.5879)" /><g
                   id="g524"
                   transform="translate(616.0742,684.7979)" /><g
                   id="g528"
                   transform="translate(417.0264,512.9272)" /><g
                   id="g532"
                   transform="translate(425.5049,561.9785)" /><g
                   id="g536"
                   transform="translate(737.916,571.4126)" /><g
                   id="g540"
                   transform="translate(727.4453,772.4805)" /><g
                   id="g544"
                   transform="translate(652.4023,821.9717)" /><g
                   id="g548"
                   transform="translate(361.3057,727.0303)" /><g
                   id="g552"
                   transform="translate(593.7617,777.8623)" /><g
                   id="g556"
                   transform="translate(562.9609,583.7524)" /><g
                   id="g560"
                   transform="translate(518.832,697.5547)" /><g
                   id="g564"
                   transform="translate(613.3672,837.1494)" /><g
                   id="g568"
                   transform="translate(428.708,805.3125)" /><g
                   id="g572"
                   transform="translate(491.3184,788.9766)" /><g
                   id="g576"
                   transform="translate(660.6289,752.373)" /><g
                   id="g580"
                   transform="translate(730.3906,709.8608)" /><g
                   id="g584"
                   transform="translate(653.625,605.7505)" /><g
                   id="g588"
                   transform="translate(741.8174,691.522)" /><g
                   id="g592"
                   transform="translate(375.9883,195.4697)" /></g></g></g></g></g><rect
         transform="scale(1,-1)"
         y="-762.23712"
         x="-83.894012"
         height="721.48865"
         width="889.27667"
         id="rect3703"
         style="fill:#826363;fill-opacity:0.67235494;stroke:none" /></g></g></svg>